# xmcd
#
# Track frame offsets: 
#        300
#        6677
#        19932
#        34435
#        46957
#        70490
#        94490
#        123007
#        141792
#        153937
#
# Disc length: 2355 seconds
#
# Revision: 1
# Processed by: cddbd v1.5.2PL0 Copyright (c) Steve Scherf et al.
# Submitted via: ExactAudioCopy v0.90b4
#
DISCID=8e092f0a
DTITLE=Sam Cooke - One Night Stand: Sam Cooke Live At The Harlem Squar
DTITLE=e Club
DYEAR=1963
DGENRE=Soul
TTITLE0=Soul Twist/Introduction
TTITLE1=Feel It (Don't Fight It)
TTITLE2=Chain Gang
TTITLE3=Cupid
TTITLE4=Medley: It's All Right/For Sentimental Reasons
TTITLE5=Twistin' The Night Away
TTITLE6=Somebody Have Mercy
TTITLE7=Bring It On Home To Me
TTITLE8=Nothing Can Change This Love
TTITLE9=Having A Party
EXTD=
EXTT0=
EXTT1=
EXTT2=
EXTT3=
EXTT4=
EXTT5=
EXTT6=
EXTT7=
EXTT8=
EXTT9=
PLAYORDER=
